STARTFONT 2.1
FONT -FontForge-Merriweather-Book-R-Normal--30-230-96-96-P-180-ISO10646-1
SIZE 23 96 96
FONTBOUNDINGBOX 32 35 -1 -8
COMMENT "Generated by fontforge, http://fontforge.sourceforge.net"
COMMENT "Copyright 2016 The Merriweather Project Authors (https://github.com/EbenSorkin/Merriweather), with Reserved Font Name "Merriweather"."
STARTPROPERTIES 39
FOUNDRY "FontForge"
FAMILY_NAME "Merriweather"
WEIGHT_NAME "Book"
SLANT "R"
SETWIDTH_NAME "Normal"
ADD_STYLE_NAME ""
PIXEL_SIZE 30
POINT_SIZE 230
RESOLUTION_X 96
RESOLUTION_Y 96
SPACING "P"
AVERAGE_WIDTH 180
CHARSET_REGISTRY "ISO10646"
CHARSET_ENCODING "1"
FONTNAME_REGISTRY ""
CHARSET_COLLECTIONS "ISO10646-1"
FONT_NAME "Merriweather-Regular"
FACE_NAME "Merriweather Regular"
COPYRIGHT "Copyright 2016 The Merriweather Project Authors (https://github.com/EbenSorkin/Merriweather), with Reserved Font Name "Merriweather"."
FONT_VERSION "2.002"
FONT_ASCENT 24
FONT_DESCENT 6
UNDERLINE_POSITION -3
UNDERLINE_THICKNESS 2
X_HEIGHT 16
CAP_HEIGHT 21
RAW_ASCENT 800
RAW_DESCENT 200
NORM_SPACE 7
RELATIVE_WEIGHT 40
RELATIVE_SETWIDTH 50
SUPERSCRIPT_X 0
SUPERSCRIPT_Y 10
SUPERSCRIPT_SIZE 18
SUBSCRIPT_X 0
SUBSCRIPT_Y 2
SUBSCRIPT_SIZE 18
AVG_LOWERCASE_WIDTH 170
AVG_UPPERCASE_WIDTH 209
ENDPROPERTIES
CHARS 95
STARTCHAR space
ENCODING 32
SWIDTH 237 0
DWIDTH 7 0
BBX 1 1 0 0
BITMAP
00
ENDCHAR
STARTCHAR exclam
ENCODING 33
SWIDTH 354 0
DWIDTH 11 0
BBX 4 27 3 0
BITMAP
F0
F0
F0
F0
70
70
70
70
70
70
70
70
60
60
60
60
60
60
60
60
00
00
00
70
F0
F0
70
ENDCHAR
STARTCHAR quotedbl
ENCODING 34
SWIDTH 612 0
DWIDTH 18 0
BBX 11 11 4 14
BITMAP
E1E0
E0E0
E0E0
E0C0
E0C0
E0C0
E0C0
C0C0
C0C0
C0C0
C0C0
ENDCHAR
STARTCHAR numbersign
ENCODING 35
SWIDTH 744 0
DWIDTH 22 0
BBX 18 22 2 0
BITMAP
070600
070600
070600
070600
060E00
060E00
7FFFC0
7FFFC0
0E0E00
0E0C00
0E0C00
0E0C00
0E0C00
0E0C00
FFFFC0
FFFFC0
0C1C00
0C1C00
1C1C00
1C1800
1C1800
1C1800
ENDCHAR
STARTCHAR dollar
ENCODING 36
SWIDTH 659 0
DWIDTH 20 0
BBX 14 29 3 -3
BITMAP
0300
0300
0300
0300
0FE0
3FF8
7038
E018
E018
E018
F000
F000
7C00
3F00
1FC0
07E0
01F8
0078
003C
001C
C01C
C01C
C01C
E038
FFF0
3FC0
0300
0300
0300
ENDCHAR
STARTCHAR percent
ENCODING 37
SWIDTH 1037 0
DWIDTH 31 0
BBX 27 22 2 0
BITMAP
1F006000
3F806000
61C0C000
E0C0C000
E0E1C000
C0E18000
C0E38000
C0E30000
E0E70000
E1C60F80
71C63FC0
3F8C70E0
1E0C60E0
001CE060
0018E060
0038E060
0030E060
0030E0E0
006070E0
006071C0
00E03F80
00C00E00
ENDCHAR
STARTCHAR ampersand
ENCODING 38
SWIDTH 756 0
DWIDTH 23 0
BBX 20 22 2 0
BITMAP
07C000
1FF000
1C3800
383800
383800
383800
383800
387000
1CE000
1FC000
0F87F0
0F07F0
3F80C0
73C1C0
E1E180
E0F180
E07980
E03F00
E01E00
781F80
3FFBE0
0FE1E0
ENDCHAR
STARTCHAR quotesingle
ENCODING 39
SWIDTH 353 0
DWIDTH 11 0
BBX 3 11 4 14
BITMAP
E0
E0
E0
E0
E0
E0
E0
C0
C0
C0
C0
ENDCHAR
STARTCHAR parenleft
ENCODING 40
SWIDTH 430 0
DWIDTH 13 0
BBX 9 31 2 -6
BITMAP
0100
0380
0600
0C00
1C00
1800
3800
3000
7000
7000
E000
E000
E000
E000
E000
E000
E000
E000
E000
E000
7000
7000
7000
3800
3800
1C00
1C00
0E00
0700
0380
0100
ENDCHAR
STARTCHAR parenright
ENCODING 41
SWIDTH 430 0
DWIDTH 13 0
BBX 9 30 2 -5
BITMAP
4000
E000
3000
3800
1C00
0C00
0E00
0E00
0700
0700
0700
0380
0380
0380
0380
0380
0380
0380
0380
0380
0700
0700
0700
0E00
0E00
1C00
1800
3800
7000
E000
ENDCHAR
STARTCHAR asterisk
ENCODING 42
SWIDTH 643 0
DWIDTH 19 0
BBX 15 15 2 9
BITMAP
0380
0380
0380
638C
F19E
7D3C
1FF0
0180
0FF0
3D3C
F99E
618C
4180
0380
0380
ENDCHAR
STARTCHAR plus
ENCODING 43
SWIDTH 661 0
DWIDTH 20 0
BBX 14 14 3 3
BITMAP
0300
0300
0300
0300
0300
0300
FFFC
FFFC
0300
0300
0300
0300
0300
0300
ENDCHAR
STARTCHAR comma
ENCODING 44
SWIDTH 335 0
DWIDTH 10 0
BBX 5 11 3 -7
BITMAP
60
F0
F0
78
30
30
30
70
60
E0
C0
ENDCHAR
STARTCHAR hyphen
ENCODING 45
SWIDTH 628 0
DWIDTH 19 0
BBX 12 2 3 8
BITMAP
FFF0
FFF0
ENDCHAR
STARTCHAR period
ENCODING 46
SWIDTH 265 0
DWIDTH 8 0
BBX 4 4 2 0
BITMAP
60
F0
F0
E0
ENDCHAR
STARTCHAR slash
ENCODING 47
SWIDTH 431 0
DWIDTH 13 0
BBX 11 29 1 -5
BITMAP
00E0
00E0
00C0
01C0
01C0
0180
0180
0380
0380
0300
0700
0700
0600
0600
0E00
0E00
0C00
1C00
1C00
1800
1800
3800
3800
3000
7000
7000
6000
E000
E000
ENDCHAR
STARTCHAR zero
ENCODING 48
SWIDTH 643 0
DWIDTH 19 0
BBX 15 19 2 0
BITMAP
07E0
1FF8
383C
701C
701E
F00E
E00E
E00E
E00E
E00E
E00E
E00E
E00E
F00E
701C
701C
3838
1FF0
07C0
ENDCHAR
STARTCHAR one
ENCODING 49
SWIDTH 440 0
DWIDTH 13 0
BBX 12 19 1 0
BITMAP
0700
0F00
7F00
FF00
8700
0700
0700
0700
0700
0700
0700
0700
0700
0700
0700
0700
0700
7FF0
7FF0
ENDCHAR
STARTCHAR two
ENCODING 50
SWIDTH 598 0
DWIDTH 18 0
BBX 16 19 1 0
BITMAP
03C0
1FF0
7078
603C
003C
001C
003C
003C
0038
0078
0070
00E0
01C0
0380
0703
0E03
3807
FFFE
7FFE
ENDCHAR
STARTCHAR three
ENCODING 51
SWIDTH 560 0
DWIDTH 17 0
BBX 13 24 2 -5
BITMAP
0F00
7FE0
E1F0
80F0
0070
0070
0070
00E0
01E0
03C0
0F00
3FC0
21F0
0078
0078
0038
0038
0038
0078
0070
00F0
03E0
FF80
FE00
ENDCHAR
STARTCHAR four
ENCODING 52
SWIDTH 644 0
DWIDTH 19 0
BBX 18 26 1 -5
BITMAP
004000
007000
00F000
00E000
01E000
01C000
03C000
038000
078000
070000
070000
0E0000
0E0000
1C1C00
1C1C00
381C00
381C00
701C00
601C00
FFFFC0
7FFFC0
001C00
001C00
001C00
001C00
001C00
ENDCHAR
STARTCHAR five
ENCODING 53
SWIDTH 594 0
DWIDTH 18 0
BBX 13 24 3 -5
BITMAP
7FF0
7FF0
7FE0
6000
6000
6000
E000
E000
C000
DF80
FFE0
80F0
0070
0078
0078
0078
0078
0070
0070
00F0
01E0
07C0
FF00
FC00
ENDCHAR
STARTCHAR six
ENCODING 54
SWIDTH 664 0
DWIDTH 20 0
BBX 16 24 2 0
BITMAP
0008
0078
01E0
0380
0700
0E00
1C00
3C00
3800
79F0
77FC
781E
F00E
F00E
F00F
F00F
F00F
700F
700E
700E
381C
3C3C
1FF8
07E0
ENDCHAR
STARTCHAR seven
ENCODING 55
SWIDTH 588 0
DWIDTH 18 0
BBX 15 24 1 -6
BITMAP
7FFE
7FFE
600E
600C
601C
E01C
0018
0038
0038
0070
0070
0070
00E0
00E0
01C0
01C0
01C0
0380
0380
0780
0700
0F00
0F00
0200
ENDCHAR
STARTCHAR eight
ENCODING 56
SWIDTH 633 0
DWIDTH 19 0
BBX 15 22 2 0
BITMAP
07E0
1FF8
3838
701C
701C
700C
701C
7818
3E38
1F70
0FC0
1FF0
38F8
703C
E01E
E00E
E00E
E00E
F01E
783C
3FF8
0FE0
ENDCHAR
STARTCHAR nine
ENCODING 57
SWIDTH 660 0
DWIDTH 20 0
BBX 16 24 2 -5
BITMAP
07E0
1FF8
383C
701C
701E
F00E
E00E
E00F
E00F
F00F
F00F
700E
783E
3FEE
0FDE
001C
003C
0038
0070
00F0
01C0
0780
1F00
0800
ENDCHAR
STARTCHAR colon
ENCODING 58
SWIDTH 344 0
DWIDTH 10 0
BBX 4 17 3 0
BITMAP
70
F0
F0
60
00
00
00
00
00
00
00
00
00
70
F0
F0
60
ENDCHAR
STARTCHAR semicolon
ENCODING 59
SWIDTH 344 0
DWIDTH 10 0
BBX 5 23 3 -6
BITMAP
70
F0
F0
60
00
00
00
00
00
00
00
20
F0
F0
70
78
30
30
70
70
60
C0
80
ENDCHAR
STARTCHAR less
ENCODING 60
SWIDTH 669 0
DWIDTH 20 0
BBX 15 16 2 1
BITMAP
0006
001E
007C
01F0
03C0
0F00
3C00
F000
F000
3C00
0F00
03C0
00F0
007E
001E
0006
ENDCHAR
STARTCHAR equal
ENCODING 61
SWIDTH 653 0
DWIDTH 20 0
BBX 14 10 3 4
BITMAP
FFFC
FFFC
0000
0000
0000
0000
0000
0000
FFFC
FFFC
ENDCHAR
STARTCHAR greater
ENCODING 62
SWIDTH 669 0
DWIDTH 20 0
BBX 15 16 3 1
BITMAP
C000
F000
7C00
1F00
07C0
01E0
0078
001E
001E
0078
01E0
0780
1F00
7C00
F000
C000
ENDCHAR
STARTCHAR question
ENCODING 63
SWIDTH 487 0
DWIDTH 15 0
BBX 13 27 1 0
BITMAP
7F00
FFC0
01E0
00F0
0070
0070
0038
0038
0030
0070
00E0
03C0
0780
0F00
1E00
1C00
1C00
0C00
0C00
0000
0000
0000
0000
1C00
1E00
1E00
1C00
ENDCHAR
STARTCHAR at
ENCODING 64
SWIDTH 1078 0
DWIDTH 32 0
BBX 26 29 3 -7
BITMAP
000FE000
007FFC00
01C01E00
03000700
06000380
0C000180
180721C0
303FF0C0
3071E0C0
60E060C0
60C0E0C0
E180E0C0
C180E0C0
C381E0C0
C381C0C0
C381C080
C383C180
C386C100
C386C300
C1CCC600
E0F8FC00
E0707000
60000000
70000000
38000000
1C000000
0F00C000
07FF8000
01FE0000
ENDCHAR
STARTCHAR A
ENCODING 65
SWIDTH 692 0
DWIDTH 21 0
BBX 21 22 0 0
BITMAP
007000
00F800
00F800
01B800
019C00
019C00
039C00
030E00
030E00
070E00
060700
060700
0E0780
0C0380
0FFF80
1FFFC0
1801C0
3801C0
3801E0
3001E0
FE07F8
FE07F8
ENDCHAR
STARTCHAR B
ENCODING 66
SWIDTH 685 0
DWIDTH 21 0
BBX 18 22 1 0
BITMAP
FFFC00
FFFF00
1C0F00
1C0780
1C0380
1C0380
1C0380
1C0700
1C0E00
1FFC00
1FFF00
1C0780
1C03C0
1C01C0
1C01C0
1C01C0
1C01C0
1C01C0
1C03C0
1C0780
FFFF00
FFFC00
ENDCHAR
STARTCHAR C
ENCODING 67
SWIDTH 653 0
DWIDTH 20 0
BBX 18 22 1 0
BITMAP
01FE00
07FF80
0E0380
1C0380
380180
780180
700000
F00000
F00000
F00000
F00000
F00000
F00000
F00000
F00000
700000
780140
380180
3C0180
1E0380
07FF80
01FC00
ENDCHAR
STARTCHAR D
ENCODING 68
SWIDTH 758 0
DWIDTH 23 0
BBX 21 22 1 0
BITMAP
7FFC00
7FFF00
1C07C0
1C01E0
1C00E0
1C00F0
1C0070
1C0070
1C0078
1C0078
1C0078
1C0078
1C0078
1C0070
1C0070
1C0070
1C00E0
1C01E0
1C01C0
1C0780
FFFE00
FFF800
ENDCHAR
STARTCHAR E
ENCODING 69
SWIDTH 651 0
DWIDTH 20 0
BBX 18 22 1 0
BITMAP
FFFF00
FFFF00
1C0300
1C0300
1C0000
1C0000
1C0000
1C1800
1C1800
1C1800
1FF800
1FF800
1C1800
1C1800
1C0000
1C0000
1C0080
1C00C0
1C01C0
1C0180
3FFF80
FFFF80
ENDCHAR
STARTCHAR F
ENCODING 70
SWIDTH 619 0
DWIDTH 19 0
BBX 17 22 1 0
BITMAP
FFFF00
FFFF00
1C0380
1C0380
1C0180
1C0000
1C0000
1C0C00
1C0C00
1C0C00
1FFC00
1FFC00
1C0C00
1C0C00
1C0000
1C0000
1C0000
1C0000
1C0000
1C0000
FFE000
FFE000
ENDCHAR
STARTCHAR G
ENCODING 71
SWIDTH 740 0
DWIDTH 22 0
BBX 21 22 1 0
BITMAP
00FF00
07FFE0
0F00E0
1E00E0
3C00C0
3800C0
780000
700000
700000
F00000
F00FF8
F00FF8
F000E0
F000E0
7000E0
7800E0
7800E0
3C00E0
1E00E0
0F01E0
07FF80
01FC00
ENDCHAR
STARTCHAR H
ENCODING 72
SWIDTH 828 0
DWIDTH 25 0
BBX 22 22 1 0
BITMAP
7F83FC
7F83FC
1C0070
1C0070
1C0070
1C0070
1C0070
1C0070
1C0070
1C0070
1FFFF0
1FFFF0
1C0070
1C0070
1C0070
1C0070
1C0070
1C0070
1C0070
1C0070
7F01FC
FF83FC
ENDCHAR
STARTCHAR I
ENCODING 73
SWIDTH 403 0
DWIDTH 12 0
BBX 8 22 2 0
BITMAP
FF
FF
3C
3C
3C
3C
3C
3C
3C
3C
3C
3C
3C
3C
3C
3C
3C
3C
3C
3C
FF
FF
ENDCHAR
STARTCHAR J
ENCODING 74
SWIDTH 381 0
DWIDTH 11 0
BBX 10 28 0 -6
BITMAP
7FC0
7FC0
0F00
0F00
0F00
0F00
0F00
0F00
0F00
0F00
0F00
0F00
0F00
0F00
0F00
0F00
0F00
0F00
0F00
0E00
0E00
0E00
0E00
1E00
1C00
7800
F000
8000
ENDCHAR
STARTCHAR K
ENCODING 75
SWIDTH 726 0
DWIDTH 22 0
BBX 21 22 1 0
BITMAP
FF8FF0
FF8FF0
1C0380
1C0300
1C0600
1C0C00
1C1800
1C3800
1C7000
1CE000
1CF000
1DF800
1F3C00
1E1E00
1C1E00
1C0F00
1C0780
1C0780
1C03C0
1C03E0
7F81F8
FF80F8
ENDCHAR
STARTCHAR L
ENCODING 76
SWIDTH 634 0
DWIDTH 19 0
BBX 17 22 1 0
BITMAP
FF8000
FF8000
1C0000
1C0000
1C0000
1C0000
1C0000
1C0000
1C0000
1C0000
1C0000
1C0000
1C0000
1C0000
1C0000
1C0080
1C0180
1C0180
1C0380
1C0380
3FFF80
FFFF80
ENDCHAR
STARTCHAR M
ENCODING 77
SWIDTH 990 0
DWIDTH 30 0
BBX 30 22 0 0
BITMAP
3FC00FF0
3FC01FF0
07C01B80
07E01B80
04E03B80
0CE03380
0CF03380
0C703380
0C706380
0C786180
0C3861C0
0C38C1C0
0C3CC1C0
0C1CC1C0
1C1D81C0
180D81C0
180F81C0
180F81E0
180701E0
180700E0
FF0707F8
FF0007FC
ENDCHAR
STARTCHAR N
ENCODING 78
SWIDTH 799 0
DWIDTH 24 0
BBX 22 22 1 0
BITMAP
FC01FC
FE01FC
1F0030
1F8030
1B8030
1BC030
19E030
19E030
18F030
187830
187830
183C30
181E30
180E30
180F30
1807B0
1803B0
1803F0
1801F0
1800F0
7E00F0
FF0070
ENDCHAR
STARTCHAR O
ENCODING 79
SWIDTH 722 0
DWIDTH 22 0
BBX 20 22 1 0
BITMAP
01FC00
07FF00
1E0780
3C03C0
3801C0
7001E0
7000E0
F000E0
F000F0
F000F0
F000F0
F000F0
F000F0
F000E0
F000E0
7001E0
7801C0
7801C0
3C0380
1E0700
0FFE00
03F800
ENDCHAR
STARTCHAR P
ENCODING 80
SWIDTH 649 0
DWIDTH 19 0
BBX 18 22 1 0
BITMAP
7FFC00
7FFF00
1C0780
1C0380
1C03C0
1C03C0
1C03C0
1C03C0
1C0380
1C0380
1C0700
1C0F00
1FFC00
1FE000
1C0000
1C0000
1C0000
1C0000
1C0000
1C0000
7FC000
FFC000
ENDCHAR
STARTCHAR Q
ENCODING 81
SWIDTH 727 0
DWIDTH 22 0
BBX 26 27 1 -5
BITMAP
01FC0000
07FF0000
1E078000
1C03C000
3801C000
7801E000
7000E000
F000E000
F000F000
F000F000
F000F000
F000F000
F000F000
F000E000
F000E000
7000E000
7801C000
7801C000
3C038000
1E070000
0FFE0000
03FF0000
0003C000
0001F000
00007C00
00003FC0
00000FC0
ENDCHAR
STARTCHAR R
ENCODING 82
SWIDTH 704 0
DWIDTH 21 0
BBX 20 22 1 0
BITMAP
7FF800
7FFF00
1C0F00
1C0780
1C0380
1C0380
1C0380
1C0380
1C0700
1C0F00
1FFE00
1FF800
1C3C00
1C1E00
1C0E00
1C0F00
1C0700
1C0780
1C03C0
1C03C0
FF81F0
FF81F0
ENDCHAR
STARTCHAR S
ENCODING 83
SWIDTH 594 0
DWIDTH 18 0
BBX 15 22 2 0
BITMAP
0FE0
3FF8
7018
E018
E018
E018
F000
F000
7C00
3F00
1FC0
07F0
01F8
007C
001C
C01E
C01E
C01C
C01C
E038
7FF0
0FC0
ENDCHAR
STARTCHAR T
ENCODING 84
SWIDTH 692 0
DWIDTH 21 0
BBX 19 22 1 0
BITMAP
FFFFE0
FFFFE0
C0E0E0
C0E0E0
C0E060
C0E060
C0E060
C0E060
00E000
00E000
00E000
00E000
00E000
00E000
00E000
00E000
00E000
00E000
00E000
00E000
0FFE00
0FFE00
ENDCHAR
STARTCHAR U
ENCODING 85
SWIDTH 740 0
DWIDTH 22 0
BBX 21 22 1 0
BITMAP
FF03F8
FF03F8
3800E0
3800E0
3800E0
3800E0
3800E0
3800E0
3800E0
3800E0
3800E0
3800E0
3800E0
3800E0
3800C0
3800C0
3C00C0
1C01C0
1E0180
0F0380
07FE00
01FC00
ENDCHAR
STARTCHAR V
ENCODING 86
SWIDTH 670 0
DWIDTH 20 0
BBX 21 22 0 0
BITMAP
FF03F8
FF03F8
7800E0
3800C0
3C00C0
1C01C0
1C0180
1E0180
0E0300
0F0300
070300
070600
078600
038600
038C00
01CC00
01CC00
01D800
00F800
00F800
00F000
007000
ENDCHAR
STARTCHAR W
ENCODING 87
SWIDTH 1000 0
DWIDTH 30 0
BBX 32 22 -1 0
BITMAP
FF8FF8FF
FF8FF8FF
1C01C018
1C01C018
1E01C018
0E01E038
0E03E030
0E03E030
0703F030
07027060
07067060
07867860
038638C0
038C38C0
03CC38C0
01CC1CC0
01D81D80
01D81D80
00D80D80
00F00F00
00F00F00
00700700
ENDCHAR
STARTCHAR X
ENCODING 88
SWIDTH 712 0
DWIDTH 21 0
BBX 21 22 0 0
BITMAP
7FC7F8
7FC7F8
1E00C0
0F0180
070380
078300
03C600
01C600
01EC00
00F800
007000
007800
00FC00
019C00
018E00
030F00
060700
060780
0C03C0
1C01E0
7F07F8
FF0FF8
ENDCHAR
STARTCHAR Y
ENCODING 89
SWIDTH 644 0
DWIDTH 19 0
BBX 20 22 0 0
BITMAP
FE07F0
FE07F0
3801C0
3C0180
1C0300
1E0300
0F0600
070600
078C00
038C00
03D800
01D800
00F000
00F000
00F000
00F000
00F000
00F000
00F000
00F000
07FE00
07FE00
ENDCHAR
STARTCHAR Z
ENCODING 90
SWIDTH 654 0
DWIDTH 20 0
BBX 17 22 1 0
BITMAP
3FFF80
3FFF80
300700
300F00
701E00
603C00
003C00
007800
00F000
00F000
01E000
03C000
03C000
078000
0F0000
0F0100
1E0180
3C0180
380180
780380
FFFF80
7FFF80
ENDCHAR
STARTCHAR bracketleft
ENCODING 91
SWIDTH 428 0
DWIDTH 13 0
BBX 7 28 3 -4
BITMAP
7E
FE
E0
E0
E0
E0
E0
E0
E0
E0
E0
E0
E0
E0
E0
E0
E0
E0
E0
E0
E0
E0
E0
E0
E0
E0
FE
7E
ENDCHAR
STARTCHAR backslash
ENCODING 92
SWIDTH 431 0
DWIDTH 13 0
BBX 11 29 1 -5
BITMAP
C000
E000
E000
6000
7000
7000
3000
3000
3800
3800
1800
1C00
1C00
0C00
0C00
0E00
0E00
0600
0700
0700
0300
0300
0380
0380
0180
01C0
01C0
00C0
00E0
ENDCHAR
STARTCHAR bracketright
ENCODING 93
SWIDTH 428 0
DWIDTH 13 0
BBX 7 28 3 -4
BITMAP
FC
FE
0E
0E
0E
0E
0E
0E
0E
0E
0E
0E
0E
0E
0E
0E
0E
0E
0E
0E
0E
0E
0E
0E
0E
0E
FE
FC
ENDCHAR
STARTCHAR asciicircum
ENCODING 94
SWIDTH 666 0
DWIDTH 20 0
BBX 14 19 3 4
BITMAP
0300
0780
0780
0780
0FC0
0CC0
0CC0
1CE0
18E0
1860
3870
3070
3030
7038
7038
6018
E01C
E01C
C00C
ENDCHAR
STARTCHAR underscore
ENCODING 95
SWIDTH 835 0
DWIDTH 25 0
BBX 25 2 0 -5
BITMAP
FFFFFF80
FFFFFF80
ENDCHAR
STARTCHAR grave
ENCODING 96
SWIDTH 333 0
DWIDTH 10 0
BBX 7 7 0 20
BITMAP
40
60
F0
70
38
1C
0E
ENDCHAR
STARTCHAR a
ENCODING 97
SWIDTH 561 0
DWIDTH 17 0
BBX 15 17 1 0
BITMAP
0FE0
7FF0
6038
0038
0038
0038
00F8
0FF8
3E38
7838
7038
F038
F038
F038
7878
3FDE
1F1E
ENDCHAR
STARTCHAR b
ENCODING 98
SWIDTH 607 0
DWIDTH 18 0
BBX 17 24 0 0
BITMAP
F80000
780000
380000
380000
380000
380000
380000
39F800
3BFE00
3E0E00
380F00
380700
380780
380380
380380
380380
380380
380780
380700
380700
380E00
3C1C00
3FF800
0FE000
ENDCHAR
STARTCHAR c
ENCODING 99
SWIDTH 513 0
DWIDTH 15 0
BBX 13 17 1 0
BITMAP
07E0
1FF8
3838
7038
7018
F018
F000
E000
E000
E000
E000
F000
7000
7800
3C08
1FF8
0FE0
ENDCHAR
STARTCHAR d
ENCODING 100
SWIDTH 621 0
DWIDTH 19 0
BBX 17 24 1 0
BITMAP
007E00
003E00
000E00
000E00
000E00
000E00
000E00
03FE00
0FFE00
1C0E00
380E00
700E00
700E00
700E00
F00E00
F00E00
F00E00
F00E00
F00E00
700E00
780E00
3C1E00
1FEF80
0FCF80
ENDCHAR
STARTCHAR e
ENCODING 101
SWIDTH 544 0
DWIDTH 16 0
BBX 14 17 1 0
BITMAP
07E0
1FF0
3838
303C
701C
701C
F01C
FFFC
FFFC
F000
F000
7000
7000
7800
3C0C
1FF8
07E0
ENDCHAR
STARTCHAR f
ENCODING 102
SWIDTH 400 0
DWIDTH 12 0
BBX 11 25 1 0
BITMAP
01E0
03E0
0FE0
0E20
1C00
1C00
1C00
1C00
FFC0
FFC0
1C00
1C00
1C00
1C00
1C00
1C00
1C00
1C00
1C00
1C00
1C00
1C00
1C00
FF80
FF80
ENDCHAR
STARTCHAR g
ENCODING 103
SWIDTH 607 0
DWIDTH 18 0
BBX 17 25 1 -8
BITMAP
07E380
1FFF80
383F80
701C00
701C00
701C00
701C00
701C00
383800
1FF000
0FE000
380000
300000
300000
380000
3FFC00
1FFF00
300F00
700780
E00780
E00700
F00700
701E00
3FF800
1FE000
ENDCHAR
STARTCHAR h
ENCODING 104
SWIDTH 659 0
DWIDTH 20 0
BBX 19 24 0 0
BITMAP
FC0000
7C0000
1C0000
1C0000
1C0000
1C0000
1C0000
1C7E00
1DFF00
1F0700
1C0700
1C0380
1C0380
1C0380
1C0380
1C0380
1C0380
1C0380
1C0380
1C0380
1C0380
1C0380
7F0FE0
7F0FE0
ENDCHAR
STARTCHAR i
ENCODING 105
SWIDTH 333 0
DWIDTH 10 0
BBX 8 24 1 0
BITMAP
1C
3C
3C
38
00
00
00
FC
FC
1C
1C
1C
1C
1C
1C
1C
1C
1C
1C
1C
1C
1C
FF
FF
ENDCHAR
STARTCHAR j
ENCODING 106
SWIDTH 317 0
DWIDTH 10 0
BBX 7 31 0 -7
BITMAP
0E
1E
1E
1C
00
00
00
7E
7E
1E
0E
0E
0E
0E
0E
0E
0E
0E
0E
0E
0E
0E
0E
0E
1E
1C
1C
1C
3C
F8
E0
ENDCHAR
STARTCHAR k
ENCODING 107
SWIDTH 600 0
DWIDTH 18 0
BBX 18 25 1 0
BITMAP
780000
F80000
380000
380000
380000
380000
380000
380000
383F80
383F80
381C00
383800
383000
386000
38C000
39E000
3BF000
3E7000
3C7800
383800
381C00
381E00
380E00
FE3FC0
FE3FC0
ENDCHAR
STARTCHAR l
ENCODING 108
SWIDTH 333 0
DWIDTH 10 0
BBX 8 24 1 0
BITMAP
FC
7C
1C
1C
1C
1C
1C
1C
1C
1C
1C
1C
1C
1C
1C
1C
1C
1C
1C
1C
1C
1C
FF
FF
ENDCHAR
STARTCHAR m
ENCODING 109
SWIDTH 995 0
DWIDTH 30 0
BBX 28 17 1 0
BITMAP
F8FC3F00
FBFEFF80
3E0F8380
380F03C0
380701C0
380701C0
380701C0
380701C0
380701C0
380701C0
380701C0
380701C0
380701C0
380701C0
380701C0
FE1FC7F0
FE1FC7F0
ENDCHAR
STARTCHAR n
ENCODING 110
SWIDTH 664 0
DWIDTH 20 0
BBX 18 17 1 0
BITMAP
F8FC00
FBFE00
3E0E00
380700
380700
380700
380700
380700
380700
380700
380700
380700
380700
380700
380700
FE1FC0
FE1FC0
ENDCHAR
STARTCHAR o
ENCODING 111
SWIDTH 608 0
DWIDTH 18 0
BBX 16 17 1 0
BITMAP
03E0
0FF8
3C3C
381E
700E
700E
F00F
F00F
F00F
F00F
F00F
700E
700E
781E
3C1C
1FF8
07E0
ENDCHAR
STARTCHAR p
ENCODING 112
SWIDTH 628 0
DWIDTH 19 0
BBX 17 24 1 -7
BITMAP
F9F800
FFFC00
3C1E00
380F00
380700
380700
380700
380780
380780
380700
380700
380700
380F00
380E00
381C00
3FF800
3FE000
380000
380000
380000
380000
380000
FF0000
FF0000
ENDCHAR
STARTCHAR q
ENCODING 113
SWIDTH 609 0
DWIDTH 18 0
BBX 17 24 1 -7
BITMAP
03F600
0FFE00
1C0E00
380E00
700E00
700E00
700E00
F00E00
F00E00
F00E00
F00E00
700E00
700E00
780E00
3C1E00
1FEE00
0FCE00
000E00
000E00
000E00
000E00
000E00
007F00
00FF80
ENDCHAR
STARTCHAR r
ENCODING 114
SWIDTH 458 0
DWIDTH 14 0
BBX 12 17 1 0
BITMAP
7870
F9F0
3BF0
1F10
1C00
1C00
1C00
1C00
1C00
1C00
1C00
1C00
1C00
1C00
1C00
FFC0
FFC0
ENDCHAR
STARTCHAR s
ENCODING 115
SWIDTH 505 0
DWIDTH 15 0
BBX 12 17 2 0
BITMAP
1F80
7FE0
E0E0
E060
E060
E000
F800
7E00
3F80
0FE0
01E0
00F0
C070
C070
E0E0
FFC0
3F80
ENDCHAR
STARTCHAR t
ENCODING 116
SWIDTH 407 0
DWIDTH 12 0
BBX 11 21 1 0
BITMAP
1800
1800
1800
3800
FFC0
FFC0
3800
3800
3800
3800
3800
3800
3800
3800
3800
3800
3800
3800
3800
3FE0
1F80
ENDCHAR
STARTCHAR u
ENCODING 117
SWIDTH 632 0
DWIDTH 19 0
BBX 17 17 1 0
BITMAP
F83E00
F83E00
380E00
380E00
380E00
380E00
380E00
380E00
380E00
380E00
380E00
380E00
380E00
380E00
3C1E00
1FFF80
0F8780
ENDCHAR
STARTCHAR v
ENCODING 118
SWIDTH 568 0
DWIDTH 17 0
BBX 17 17 0 0
BITMAP
FE1F80
FE1F80
380700
380600
3C0E00
1C0C00
1C0C00
0E1C00
0E1800
0E1800
073000
073000
033000
03E000
03E000
01C000
01C000
ENDCHAR
STARTCHAR w
ENCODING 119
SWIDTH 839 0
DWIDTH 25 0
BBX 26 17 0 0
BITMAP
FE1E1FC0
FE1E1FC0
781E0300
38170700
38370600
3C370600
1C370600
1C338C00
1C638C00
0E638C00
0E619800
0E61D800
06C1D800
07C1D000
07C0F000
0380F000
0380F000
ENDCHAR
STARTCHAR x
ENCODING 120
SWIDTH 595 0
DWIDTH 18 0
BBX 18 17 0 0
BITMAP
7F1F80
7F1F80
1C0600
1E0C00
0F1C00
079800
03B000
03E000
01E000
01F000
037000
067800
0E3C00
0C1E00
180E00
FE3FC0
FE3FC0
ENDCHAR
STARTCHAR y
ENCODING 121
SWIDTH 572 0
DWIDTH 17 0
BBX 17 24 0 -7
BITMAP
FE1F80
FE1F80
780600
380600
3C0E00
1C0C00
1C0C00
1E1C00
0E1800
0E1800
071800
073000
073000
03B000
03E000
03E000
01E000
00C000
00C000
018000
038000
3F0000
3E0000
3C0000
ENDCHAR
STARTCHAR z
ENCODING 122
SWIDTH 554 0
DWIDTH 17 0
BBX 15 17 1 0
BITMAP
7FFC
7FFC
603C
6078
60F0
01E0
01E0
03C0
0780
0F00
0F00
1E00
3C0E
780C
700C
FFFC
FFFC
ENDCHAR
STARTCHAR braceleft
ENCODING 123
SWIDTH 508 0
DWIDTH 15 0
BBX 11 28 2 -4
BITMAP
0FE0
1FE0
1C00
3800
3800
1C00
1C00
1C00
1C00
0C00
0C00
0C00
1C00
F000
F000
1C00
0C00
0C00
0C00
1C00
1C00
1C00
1C00
3800
3800
1C00
1FE0
0FE0
ENDCHAR
STARTCHAR bar
ENCODING 124
SWIDTH 422 0
DWIDTH 13 0
BBX 3 29 5 -3
BITMAP
E0
E0
E0
E0
E0
E0
E0
E0
E0
E0
E0
E0
E0
E0
E0
E0
E0
E0
E0
E0
E0
E0
E0
E0
E0
E0
E0
E0
E0
ENDCHAR
STARTCHAR braceright
ENCODING 125
SWIDTH 508 0
DWIDTH 15 0
BBX 12 28 2 -4
BITMAP
FE00
FF00
0780
0380
0380
0380
0700
0700
0700
0700
0600
0600
0700
01F0
01F0
0700
0600
0600
0700
0700
0700
0700
0380
0380
0380
0780
FF00
FE00
ENDCHAR
STARTCHAR asciitilde
ENCODING 126
SWIDTH 692 0
DWIDTH 21 0
BBX 15 5 3 7
BITMAP
1C00
3E06
638C
C1F8
00F0
ENDCHAR
ENDFONT
